# xmcd
#
# Track frame offsets:
#	150
#	21091
#	38649
#	62681
#
# Disc length: 1143 seconds
#
# Revision: 0
# Processed by: cddbd v1.5.2PL0 Copyright (c) Steve Scherf et al.
# Submitted via: audiograbber 1.83.01
#
DISCID=28047504
DTITLE=Instant Mix - Cue The Violins
DYEAR=2003
DGENRE=
TTITLE0=Ratz
TTITLE1=Reefer Madness
TTITLE2=Cue The Violins
TTITLE3=Chain
EXTD=
EXTT0=
EXTT1=
EXTT2=
EXTT3=
PLAYORDER=
